<svg xmlns="http://www.w3.org/2000/svg" width="80" height="80"><g><title>Layer 1</title><g id="svg_21"><g id="svg_1"><g id="svg_2"><path id="svg_3" fill="#999" d="m5.74876,74.25125l2.30025,-15.62133l50.00444,-50.00444c1.80289,-1.80478 4.94712,-1.80478 6.7519,0l6.56729,6.56917c0.90239,0.90239 1.39973,2.10055 1.39973,3.37595s-0.49734,2.47357 -1.39973,3.37596l-50.00256,50.00444l-15.62133,2.30025zm5.84575,-13.83917l-1.37902,9.37243l9.37242,-1.37903l49.12277,-49.12465c0.19027,-0.19027 0.29578,-0.44272 0.29578,-0.71211s-0.10551,-0.52184 -0.29578,-0.71023l-6.56918,-6.56917c-0.38055,-0.38055 -1.04367,-0.38055 -1.42234,0l-49.12466,49.12277z"/></g><g id="svg_4"><rect id="svg_5" width="8.001" height="2" x="24.052" y="50.902" fill="#999" transform="matrix(1.3321079066585402,1.3321079066585402,-1.3321079066585402,1.3321079066585402,50.40888414819996,-45.14761563740794)"/></g><g id="svg_6"><rect id="svg_7" width="8" height="2" x="45.558" y="29.396" fill="#999" transform="matrix(1.3321079066585402,1.3321079066585402,-1.3321079066585402,1.3321079066585402,33.62688663256576,-85.6630248459912)"/></g></g><g id="svg_8"><g id="svg_9"><polygon id="svg_10" fill="#999" points="59.316 76.632 40.471 57.79 43.137 55.126 59.316 71.305 71.305 59.316 54.821 42.831 57.485 40.168 76.632 59.316"/></g><g id="svg_11"><polygon id="svg_12" fill="#999" points="22.625 39.942 3.368 20.684 20.684 3.368 39.825 22.506 37.161 25.17 20.684 8.695 8.695 20.684 25.289 37.278"/></g><g id="svg_13"><rect id="svg_14" width="2" height="4" x="30.26" y="25.481" fill="#999" transform="matrix(1.3321079066585402,1.3321079066585402,-1.3321079066585402,1.3321079066585402,19.647571810660747,-62.89492511934368)"/></g><g id="svg_15"><rect id="svg_16" width="2" height="4" x="34.502" y="29.724" fill="#999" transform="matrix(1.3321079066585402,1.3321079066585402,-1.3321079066585402,1.3321079066585402,27.640219250612,-66.20531970791725)"/></g><g id="svg_17"><rect id="svg_18" width="2" height="4" x="47.23" y="42.452" fill="#999" transform="matrix(1.3321079066585402,1.3321079066585402,-1.3321079066585402,1.3321079066585402,51.61872674140618,-76.13744542520547)"/></g><g id="svg_19"><rect id="svg_20" width="2" height="4" x="51.473" y="46.695" fill="#999" transform="matrix(1.3321079066585402,1.3321079066585402,-1.3321079066585402,1.3321079066585402,59.61118579104393,-79.44821679440606)"/></g></g></g></g></svg>